HIERARCHY
ROOT Hips
{
	OFFSET 0.000000 0.000000 0.000000
	CHANNELS 6 Xposition Yposition Zposition Xrotation Yrotation Zrotation
	JOINT LeftUpLeg_virtual
	{
		OFFSET 0.000000 0.000000 0.000000
		CHANNELS 3 Xrotation Yrotation Zrotation
		JOINT LeftUpLeg
		{
			OFFSET 13.026900 -6.336304 -1.092800
			CHANNELS 3 Xrotation Yrotation Zrotation
			JOINT LeftLeg
			{
				OFFSET 0.524474 -46.096886 9.782700
				CHANNELS 3 Xrotation Yrotation Zrotation
				JOINT LeftFoot
				{
					OFFSET -0.524474 -53.427422 -12.948200
					CHANNELS 3 Xrotation Yrotation Zrotation
					JOINT LeftToeBase
					{
						OFFSET 0.192200 -14.009700 16.364100
						CHANNELS 3 Xrotation Yrotation Zrotation
						JOINT LeftToe_End
						{
							OFFSET -1.784700 -0.561700 9.474800
							CHANNELS 3 Xrotation Yrotation Zrotation
							End Site
							{
								OFFSET 0 0 0
							}
						}
					}
				}
			}
		}
	}
	JOINT RightUpLeg_virtual
	{
		OFFSET 0.000000 0.000000 0.000000
		CHANNELS 3 Xrotation Yrotation Zrotation
		JOINT RightUpLeg
		{
			OFFSET -12.883000 -6.336304 -1.092800
			CHANNELS 3 Xrotation Yrotation Zrotation
			JOINT RightLeg
			{
				OFFSET -0.524587 -46.096825 9.782800
				CHANNELS 3 Xrotation Yrotation Zrotation
				JOINT RightFoot
				{
					OFFSET 0.524587 -53.427383 -12.948300
					CHANNELS 3 Xrotation Yrotation Zrotation
					JOINT RightToeBase
					{
						OFFSET -0.192200 -14.009700 16.364100
						CHANNELS 3 Xrotation Yrotation Zrotation
						JOINT RightToe_End
						{
							OFFSET 1.784700 -0.561700 9.474800
							CHANNELS 3 Xrotation Yrotation Zrotation
							End Site
							{
								OFFSET 0 0 0
							}
						}
					}
				}
			}
		}
	}
	JOINT Spine_virtual
	{
		OFFSET 0.000000 0.000000 0.000000
		CHANNELS 3 Xrotation Yrotation Zrotation
		JOINT Spine
		{
			OFFSET 0.072000 7.257294 -0.789700
			CHANNELS 3 Xrotation Yrotation Zrotation
			JOINT Spine1
			{
				OFFSET 0.000000 12.508769 -0.658067
				CHANNELS 3 Xrotation Yrotation Zrotation
				JOINT Spine1_split
				{
					OFFSET 0.000000 12.508769 -0.658067
					CHANNELS 3 Xrotation Yrotation Zrotation
					JOINT Spine2
					{
						OFFSET 0.000000 12.508769 -0.658067
						CHANNELS 3 Xrotation Yrotation Zrotation
						JOINT Neck_virtual
						{
							OFFSET 0.000000 0.000000 0.000000
							CHANNELS 3 Xrotation Yrotation Zrotation
							JOINT Neck
							{
								OFFSET 0.000000 14.033295 7.520400
								CHANNELS 3 Xrotation Yrotation Zrotation
								JOINT Head
								{
									OFFSET 0.000000 8.198502 5.703100
									CHANNELS 3 Xrotation Yrotation Zrotation
									JOINT HeadTop_End
									{
										OFFSET 0.000000 17.760803 13.332701
										CHANNELS 3 Xrotation Yrotation Zrotation
										End Site
										{
											OFFSET 0 0 0
										}
									}
								}
							}
						}
						JOINT LeftShoulder_virtual
						{
							OFFSET 0.000000 0.000000 0.000000
							CHANNELS 3 Xrotation Yrotation Zrotation
							JOINT LeftShoulder
							{
								OFFSET 6.292450 5.785301 -0.669000
								CHANNELS 3 Xrotation Yrotation Zrotation
								JOINT LeftShoulder_split
								{
									OFFSET 6.292450 5.785301 -0.669000
									CHANNELS 3 Xrotation Yrotation Zrotation
									JOINT LeftArm
									{
										OFFSET 13.907140 -6.093903 1.965100
										CHANNELS 3 Xrotation Yrotation Zrotation
										JOINT LeftForeArm
										{
											OFFSET 34.140198 0.000000 0.000000
											CHANNELS 3 Xrotation Yrotation Zrotation
											JOINT LeftHand
											{
												OFFSET 40.960209 0.000000 0.000000
												CHANNELS 3 Xrotation Yrotation Zrotation
												End Site
												{
													OFFSET 0 0 0
												}
											}
										}
									}
								}
							}
						}
						JOINT RightShoulder_virtual
						{
							OFFSET 0.000000 0.000000 0.000000
							CHANNELS 3 Xrotation Yrotation Zrotation
							JOINT RightShoulder
							{
								OFFSET -6.292450 5.785301 -0.669000
								CHANNELS 3 Xrotation Yrotation Zrotation
								JOINT RightShoulder_split
								{
									OFFSET -6.292450 5.785301 -0.669000
									CHANNELS 3 Xrotation Yrotation Zrotation
									JOINT RightArm
									{
										OFFSET -13.907140 -6.093903 1.965100
										CHANNELS 3 Xrotation Yrotation Zrotation
										JOINT RightForeArm
										{
											OFFSET -34.140198 0.000000 0.000000
											CHANNELS 3 Xrotation Yrotation Zrotation
											JOINT RightHand
											{
												OFFSET -40.960209 0.000000 0.000000
												CHANNELS 3 Xrotation Yrotation Zrotation
												End Site
												{
													OFFSET 0 0 0
												}
											}
										}
									}
								}
							}
						}
					}
				}
			}
		}
	}
}
MOTION
Frames: 7
Frame Time: 0.03333333
8.039585 88.763840 165.951675 0.000000 0.000000 0.000000 6.208197 -28.096309 0.972905 13.540924 31.768719 13.063864 39.279865 21.713023 -4.118196 -28.864441 -0.069985 -36.219598 -12.501621 -1.876182 -0.802397 0.000000 0.000000 0.000000 8.482557 -22.427549 1.063240 -62.575850 -5.212160 -6.221389 50.375592 4.202739 -4.029782 5.910652 7.630850 6.863611 -4.822532 1.912613 1.875904 0.000000 0.000000 0.000000 6.365315 -24.646973 2.579118 2.870008 -2.693687 -0.110954 2.935331 -6.631132 0.870045 2.390388 -4.405931 0.570406 0.000000 0.000000 0.000000 3.382742 -6.189232 0.543431 12.715124 1.849378 11.215145 -1.520438 4.553925 -15.808700 0.000000 0.000000 0.000000 4.396211 -7.328043 0.182993 -2.928360 -15.283834 -17.557049 -6.259184 8.517276 -0.097560 -44.835179 -9.586096 -24.695068 -20.215634 -71.221975 9.251501 0.000000 0.000000 0.000000 3.405501 -6.111734 1.696993 -0.352171 -1.143801 -1.109333 -5.008087 -1.187831 -3.505804 -28.207351 42.512716 6.471565 47.520799 30.420563 -20.159952 0.000000 0.000000 0.000000 
7.299835 88.446846 171.680206 0.000000 0.000000 0.000000 9.576396 -31.617304 1.710414 18.736510 32.206258 9.798747 32.859463 24.626100 -2.579629 -28.189768 -1.347066 -37.695418 -16.705897 -1.218550 -0.297719 0.000000 0.000000 0.000000 11.765312 -27.197074 1.626191 -62.844168 -5.708629 -2.039503 49.892380 3.598106 -3.690832 2.946237 7.782090 5.595221 -4.983058 1.276053 2.057635 0.000000 0.000000 0.000000 9.335014 -29.319953 1.909756 2.896922 -5.406771 0.194743 3.281485 -10.164271 2.021521 2.174545 -2.769021 0.543537 0.000000 0.000000 0.000000 3.511913 -9.586968 2.001902 9.515158 4.914128 13.125582 1.118886 11.033590 -19.983730 0.000000 0.000000 0.000000 4.552405 -10.785611 1.746434 -4.772210 -20.324606 -18.179348 -6.812857 9.388403 0.259540 -42.082134 -18.090784 -29.333801 -15.125304 -55.258962 10.250044 0.000000 0.000000 0.000000 3.447898 -9.576498 3.136162 -0.081598 -3.481940 5.874190 -4.163521 -1.239374 -3.706795 -18.872829 31.977341 -1.022426 37.969524 23.559197 -8.946279 0.000000 0.000000 0.000000 
6.237637 88.613297 177.196594 0.000000 0.000000 0.000000 13.037637 -34.047673 2.213904 20.792288 31.733223 9.555156 28.667564 27.252185 -0.867191 -22.830928 -3.621313 -36.561367 -19.541219 0.111454 -1.410896 0.000000 0.000000 0.000000 14.731982 -30.477882 1.903359 -62.250071 -5.925940 1.224166 50.087587 3.067271 -3.342126 -1.021460 7.939535 3.879279 -3.486063 0.936947 1.960835 0.000000 0.000000 0.000000 11.865827 -32.395956 1.103313 2.888329 -7.467367 0.486264 3.824936 -12.696203 3.053600 1.365269 -1.493220 0.510185 0.000000 0.000000 0.000000 4.125649 -11.983711 3.364960 5.821923 7.476289 14.959695 3.624356 16.061089 -22.931897 0.000000 0.000000 0.000000 4.866447 -13.135895 3.138747 -5.857851 -23.988806 -17.109653 -7.054325 9.043667 0.351656 -40.312371 -26.883946 -34.675801 -12.496637 -40.120029 8.482327 0.000000 0.000000 0.000000 3.584313 -12.081628 4.285354 0.349115 -5.305706 10.505020 -3.058308 -0.884951 -3.033776 -16.046493 23.304295 -2.468622 31.163267 22.805602 -3.226839 0.000000 0.000000 0.000000 
5.006814 89.212090 182.535233 0.000000 0.000000 0.000000 15.805980 -36.450117 2.286585 18.280310 30.949107 13.368860 29.790034 29.224566 -0.036944 -11.733148 -7.188442 -32.159502 -20.007267 2.182079 -4.460948 0.000000 0.000000 0.000000 16.899577 -33.075512 1.722992 -60.670412 -5.823419 3.573324 50.842176 2.961453 -3.051972 -4.819876 8.463473 2.696657 -1.939053 0.859721 1.476078 0.000000 0.000000 0.000000 13.436134 -34.886769 0.121866 2.867287 -8.715740 0.853041 4.350625 -14.146129 3.747493 0.659087 -0.903166 0.432101 0.000000 0.000000 0.000000 4.917372 -13.303056 4.306669 2.089482 9.562447 16.679489 5.543625 19.823830 -24.599939 0.000000 0.000000 0.000000 5.095547 -14.371481 4.082874 -6.144553 -26.262272 -14.717784 -6.691693 7.866699 0.017356 -41.041685 -34.447663 -41.088676 -10.804183 -28.724391 5.780150 0.000000 0.000000 0.000000 3.679440 -13.529120 4.957137 0.722487 -6.194550 12.829884 -1.588239 -0.276552 -1.889977 -16.536586 16.971553 -1.225436 24.757462 26.230600 -0.330923 0.000000 0.000000 0.000000 
3.916048 90.109604 187.544769 0.000000 0.000000 0.000000 17.250855 -39.576510 1.974549 10.780415 29.448654 20.643436 37.425424 30.386788 -0.898369 3.439058 -10.264127 -24.219714 -17.340300 4.664079 -9.575493 0.000000 0.000000 0.000000 17.756108 -35.672705 1.119133 -57.893148 -5.299856 5.170124 51.140696 3.603555 -2.927320 -7.708559 9.430725 2.727920 -1.401036 0.923790 0.735746 0.000000 0.000000 0.000000 13.739265 -37.526371 -1.026946 2.927573 -9.142014 1.295007 4.676194 -14.624724 3.983986 0.281459 -0.822946 0.841963 0.000000 0.000000 0.000000 5.559146 -13.705717 4.676490 -1.243552 11.308082 18.208244 6.726626 22.632834 -25.036899 0.000000 0.000000 0.000000 5.027427 -14.678923 4.372262 -5.827988 -27.221169 -11.783804 -5.697477 6.364754 -0.775141 -44.419227 -39.359272 -47.977533 -9.626940 -21.340970 2.898983 0.000000 0.000000 0.000000 3.643009 -14.002556 5.119858 0.947706 -5.823779 13.218006 -0.161362 -0.317772 0.021913 -18.342248 12.715203 1.103936 17.873702 29.749323 1.429167 0.000000 0.000000 0.000000 
3.027101 91.189957 192.249695 0.000000 0.000000 0.000000 17.029740 -42.998442 1.167105 -0.094198 26.064316 29.586535 49.119592 30.079176 -2.685401 17.763435 -10.848047 -14.463376 -12.447457 6.731103 -15.797965 0.000000 0.000000 0.000000 17.121667 -38.437788 0.137636 -53.759818 -4.174508 6.199978 50.294487 4.819276 -3.049441 -10.238096 10.649556 3.869961 -1.728637 1.026143 0.034332 0.000000 0.000000 0.000000 12.827905 -40.557001 -2.268859 3.158515 -8.939654 1.797616 4.707698 -14.359575 3.804842 0.493713 -1.258418 1.143515 0.000000 0.000000 0.000000 5.766784 -13.432549 4.449713 -3.937850 12.687484 19.306903 7.022580 24.609766 -24.349889 0.000000 0.000000 0.000000 4.685721 -14.293738 4.062548 -5.132176 -27.122538 -8.987212 -4.563214 4.439578 -1.457579 -49.149116 -41.250507 -53.963016 -8.873574 -17.040562 0.301020 0.000000 0.000000 0.000000 3.415667 -13.735885 4.853903 1.074764 -4.528131 12.355287 1.209289 -1.118856 1.774390 -20.392102 10.115384 3.583679 10.495989 29.431569 2.694471 0.000000 0.000000 0.000000 
2.277485 92.221657 197.007111 0.000000 0.000000 0.000000 15.342116 -46.275867 0.189194 -11.670807 20.696619 37.183188 61.350446 27.648565 -3.793597 26.513136 -9.884722 -6.515538 -7.955839 8.023691 -20.981416 0.000000 0.000000 0.000000 15.335081 -41.380612 -0.831713 -48.559817 -2.437517 6.635557 48.086383 5.927337 -3.216589 -12.911686 11.637731 5.046819 -2.245833 1.059264 -0.325488 0.000000 0.000000 0.000000 10.816345 -43.983413 -3.418014 3.576185 -8.376536 2.270320 4.451065 -13.668978 3.296982 1.055880 -1.311601 1.522010 0.000000 0.000000 0.000000 5.446925 -12.762950 3.761324 -5.683169 13.771220 19.739607 6.666824 25.792816 -22.814990 0.000000 0.000000 0.000000 4.209429 -13.549299 3.350228 -4.218351 -26.231514 -6.496744 -3.410036 2.556338 -2.174683 -53.745792 -41.578176 -57.627590 -8.252718 -14.863743 -1.720085 0.000000 0.000000 0.000000 3.017242 -13.014996 4.297797 1.181678 -2.996241 10.812333 2.687628 -2.091260 2.698894 -23.003056 8.547551 5.442071 3.390209 24.978654 3.130271 0.000000 0.000000 0.000000 
